<?xml version="1.0" standalone="no"?>
<!DOCTYPE svg PUBLIC "-//W3C//DTD SVG 20010904//EN"
 "http://www.w3.org/TR/2001/REC-SVG-20010904/DTD/svg10.dtd">
<svg version="1.0" xmlns="http://www.w3.org/2000/svg"
 width="3998.000000pt" height="3998.000000pt" viewBox="0 0 3998.000000 3998.000000"
 preserveAspectRatio="xMidYMid meet">
<metadata>
Created by potrace 1.14, written by Peter Selinger 2001-2017
</metadata>
<g transform="translate(0.000000,3998.000000) scale(0.100000,-0.100000)"
fill="#000000" stroke="none">
<path d="M16598 39975 c-2 -2 -66 -6 -143 -10 -77 -3 -158 -8 -180 -10 -22 -2
-78 -7 -125 -10 -47 -3 -105 -8 -130 -10 -25 -2 -72 -7 -105 -10 -70 -6 -143
-14 -200 -21 -22 -3 -58 -7 -80 -10 -22 -2 -56 -6 -75 -9 -19 -3 -55 -7 -80
-10 -25 -4 -57 -8 -71 -11 -15 -2 -47 -6 -70 -9 -24 -3 -69 -10 -99 -15 -30
-5 -73 -12 -95 -15 -22 -2 -51 -7 -65 -9 -14 -3 -38 -8 -55 -11 -16 -3 -46 -8
-65 -11 -19 -3 -93 -17 -165 -31 -71 -14 -141 -27 -155 -30 -14 -2 -86 -18
-160 -34 -74 -17 -142 -32 -150 -34 -259 -56 -697 -180 -992 -281 -267 -92
-257 -85 -162 -118 44 -15 86 -30 94 -33 8 -4 17 -7 20 -8 3 -1 22 -9 44 -18
21 -9 42 -17 45 -17 14 0 531 -211 639 -261 35 -16 65 -29 67 -29 2 0 39 -16
82 -36 301 -138 684 -331 834 -420 31 -19 59 -34 62 -34 7 0 208 -124 282
-173 58 -39 207 -154 270 -207 403 -344 749 -826 998 -1391 121 -274 262 -710
311 -959 2 -14 14 -70 25 -125 11 -55 27 -145 36 -200 22 -135 23 -143 29
-197 3 -27 8 -67 11 -90 3 -24 7 -63 9 -88 3 -25 7 -79 11 -120 16 -191 21
-575 11 -765 -12 -206 -26 -365 -46 -507 -6 -40 -13 -91 -16 -113 -4 -34 -16
-104 -39 -240 -14 -82 -30 -152 -62 -285 -19 -80 -36 -152 -38 -160 -15 -71
-163 -528 -196 -605 -6 -16 -13 -34 -14 -40 -7 -30 -137 -321 -203 -455 -173
-349 -407 -724 -739 -1181 -50 -68 -110 -149 -134 -181 -24 -31 -53 -69 -64
-84 -11 -15 -25 -32 -30 -38 -6 -6 -22 -27 -35 -46 -13 -19 -60 -80 -105 -136
-44 -56 -93 -118 -110 -140 -25 -31 -148 -185 -328 -408 -28 -35 -169 -205
-215 -261 -10 -11 -51 -60 -92 -110 -41 -49 -82 -99 -92 -110 -9 -11 -79 -94
-154 -185 -76 -91 -183 -219 -239 -285 -56 -66 -160 -190 -231 -275 -71 -85
-139 -166 -151 -180 -98 -113 -704 -849 -906 -1100 -91 -113 -77 -96 -204
-257 -62 -78 -119 -150 -127 -160 -13 -15 -164 -210 -239 -307 -66 -86 -384
-508 -397 -527 -8 -12 -24 -34 -36 -48 -36 -46 -278 -383 -359 -501 -43 -63
-81 -117 -84 -120 -4 -3 -38 -52 -76 -110 -39 -57 -74 -109 -78 -115 -7 -8
-147 -218 -197 -295 -146 -224 -191 -294 -305 -480 -152 -246 -346 -576 -450
-765 -39 -71 -98 -179 -128 -235 -60 -111 -314 -618 -369 -735 -86 -185 -200
-445 -278 -636 -40 -96 -77 -187 -85 -204 -7 -16 -16 -41 -20 -55 -4 -14 -13
-38 -21 -55 -83 -188 -358 -1040 -409 -1270 -2 -11 -18 -76 -36 -145 -29 -119
-54 -225 -65 -280 -3 -14 -9 -41 -14 -60 -5 -19 -11 -51 -14 -70 -3 -19 -14
-78 -25 -130 -24 -116 -72 -391 -86 -500 -3 -25 -8 -56 -10 -70 -6 -34 -20
-145 -30 -240 -3 -30 -8 -71 -10 -90 -20 -160 -39 -438 -51 -725 -5 -121 -5
-890 0 -995 2 -41 7 -145 11 -230 4 -85 8 -175 10 -200 13 -207 16 -260 20
-295 2 -22 7 -71 10 -110 3 -38 8 -88 10 -110 2 -22 7 -69 10 -105 3 -36 8
-76 10 -90 2 -14 6 -54 10 -90 4 -36 8 -76 10 -90 2 -14 6 -45 10 -70 3 -25 8
-61 10 -80 3 -19 8 -55 10 -80 3 -25 10 -70 15 -100 5 -30 12 -77 15 -105 4
-27 8 -57 10 -65 2 -8 7 -35 10 -60 3 -25 8 -52 10 -60 2 -8 7 -35 10 -60 22
-161 154 -765 226 -1040 70 -267 246 -842 279 -915 5 -11 34 -87 64 -170 177
-491 437 -1061 691 -1515 23 -41 53 -95 67 -120 38 -68 145 -247 186 -313 112
-176 165 -259 204 -315 90 -132 253 -361 326 -457 42 -55 92 -120 110 -145 19
-25 37 -47 41 -50 4 -3 22 -25 41 -50 48 -63 208 -255 245 -294 11 -12 35 -39
54 -61 122 -143 484 -516 676 -695 293 -273 722 -623 1000 -815 39 -27 72 -51
75 -54 11 -13 70 -51 79 -51 5 0 11 -3 13 -8 4 -11 126 -92 137 -92 5 0 11 -3
13 -8 4 -9 77 -57 246 -161 297 -182 517 -304 817 -451 493 -242 962 -427
1490 -589 228 -69 662 -177 865 -215 14 -3 61 -12 105 -20 44 -8 94 -18 110
-21 17 -2 39 -7 50 -9 11 -2 42 -7 68 -10 27 -4 56 -9 65 -11 15 -2 113 -17
202 -30 28 -4 103 -13 170 -21 25 -3 59 -7 76 -9 17 -3 62 -7 100 -10 38 -4
85 -8 104 -10 19 -2 82 -7 140 -10 58 -4 115 -8 128 -10 27 -5 462 -18 582
-18 100 0 507 12 565 17 22 2 83 7 135 11 155 10 277 21 340 30 14 2 50 6 80
10 78 9 131 16 160 20 14 2 61 9 105 15 44 6 91 12 105 15 14 2 41 6 60 9 60
10 381 71 460 88 77 16 84 18 105 22 12 2 88 21 170 41 653 159 1328 404 1850
670 179 92 275 144 275 152 0 3 -17 2 -37 -1 -21 -3 -58 -8 -83 -11 -25 -3
-61 -7 -80 -10 -19 -2 -60 -7 -90 -10 -30 -3 -71 -8 -90 -10 -19 -2 -66 -7
-105 -11 -38 -3 -86 -7 -105 -9 -19 -2 -78 -6 -130 -10 -52 -4 -115 -8 -140
-10 -254 -20 -1184 -28 -1465 -12 -358 20 -699 51 -900 82 -16 2 -52 7 -80 10
-27 3 -106 15 -175 26 -69 11 -141 22 -160 25 -19 3 -91 17 -160 30 -165 33
-161 32 -265 55 -49 12 -97 22 -105 24 -8 2 -87 22 -175 45 -88 23 -173 46
-190 50 -43 11 -293 90 -319 100 -11 5 -55 21 -96 35 -41 15 -84 31 -95 36
-11 5 -56 22 -100 38 -96 35 -365 152 -580 251 -38 18 -97 45 -130 60 -151 69
-234 109 -448 216 -126 63 -257 130 -290 148 -34 19 -93 50 -132 71 -38 20
-104 57 -147 81 -42 24 -80 44 -83 44 -3 0 -11 5 -18 10 -7 6 -75 47 -152 92
-177 102 -310 185 -500 311 -135 90 -394 270 -434 303 -9 7 -56 43 -106 80
-405 305 -843 709 -1169 1079 -43 50 -90 104 -105 120 -185 210 -516 665 -672
923 -24 41 -54 90 -67 110 -12 20 -27 46 -33 57 -5 11 -15 29 -22 40 -119 196
-336 637 -447 910 -29 72 -58 144 -66 160 -31 73 -166 458 -211 605 -120 390
-265 1003 -308 1305 -3 23 -7 52 -10 65 -3 13 -7 42 -10 65 -4 22 -12 81 -20
130 -8 50 -17 115 -20 145 -3 30 -8 66 -10 80 -7 39 -15 112 -30 260 -3 30 -8
66 -10 80 -2 14 -6 63 -10 110 -3 47 -8 101 -10 120 -8 84 -21 286 -32 505
-16 310 -8 1395 12 1590 2 22 7 85 10 140 4 55 8 111 10 125 2 14 7 52 10 85
3 33 9 78 12 100 3 22 6 51 8 65 7 71 18 155 31 240 27 173 40 249 59 345 8
39 17 86 20 105 3 19 17 87 31 150 14 63 27 124 29 135 6 36 66 277 101 405
112 411 228 762 395 1195 54 138 58 150 82 205 8 19 41 96 72 170 32 74 73
168 91 208 19 41 34 75 34 76 0 14 305 633 370 751 15 28 47 86 70 130 322
602 703 1205 1220 1931 119 167 507 676 609 800 14 17 33 40 41 50 50 62 145
180 150 184 3 3 48 57 100 120 52 63 107 129 121 145 15 17 91 104 169 195
141 163 233 267 340 385 31 33 71 77 90 99 56 61 242 260 405 431 322 338 893
893 1240 1205 27 25 72 65 99 90 27 25 54 50 60 55 120 109 543 471 741 633
43 36 311 246 325 256 12 8 -44 -59 -70 -84 -20 -18 -195 -240 -293 -370 -64
-85 -120 -159 -125 -165 -21 -27 -89 -121 -102 -141 -64 -96 -116 -171 -123
-179 -18 -21 -236 -356 -306 -470 -41 -66 -89 -144 -107 -172 -19 -29 -34 -55
-34 -59 0 -3 -13 -25 -30 -49 -16 -24 -30 -47 -30 -50 0 -4 -8 -19 -18 -33
-11 -15 -36 -58 -57 -97 -21 -38 -46 -82 -56 -97 -11 -14 -19 -28 -19 -31 0
-3 -29 -56 -64 -118 -238 -426 -521 -1016 -717 -1494 -39 -93 -74 -179 -79
-190 -15 -32 -67 -167 -132 -340 -183 -489 -377 -1101 -492 -1555 -58 -226
-76 -299 -79 -320 -3 -14 -10 -45 -17 -70 -7 -25 -14 -56 -16 -70 -3 -14 -7
-33 -10 -42 -3 -9 -7 -25 -9 -35 -2 -10 -15 -72 -29 -138 -14 -66 -27 -131
-30 -145 -2 -14 -18 -95 -35 -180 -17 -85 -33 -171 -36 -190 -3 -19 -12 -71
-20 -115 -7 -44 -16 -96 -19 -115 -3 -19 -12 -78 -20 -130 -8 -52 -18 -115
-21 -140 -3 -25 -8 -56 -10 -70 -2 -14 -7 -45 -10 -70 -3 -25 -8 -56 -10 -70
-2 -14 -7 -50 -10 -80 -3 -30 -8 -66 -10 -80 -3 -23 -6 -53 -21 -190 -9 -84
-14 -135 -19 -175 -2 -22 -7 -69 -10 -105 -3 -36 -7 -90 -10 -120 -2 -30 -7
-91 -10 -135 -3 -44 -8 -114 -10 -155 -36 -504 -40 -1392 -10 -1890 3 -41 7
-120 10 -175 3 -55 7 -118 10 -140 2 -22 7 -78 10 -125 3 -47 8 -107 10 -135
3 -27 7 -75 10 -106 2 -31 7 -72 9 -90 3 -19 8 -65 11 -104 4 -38 8 -81 10
-95 2 -14 11 -81 20 -150 9 -69 18 -136 20 -150 8 -52 18 -116 20 -137 2 -12
6 -34 9 -50 3 -15 8 -44 11 -63 6 -34 10 -62 21 -125 9 -56 63 -319 85 -415
11 -52 25 -113 29 -135 52 -252 281 -1020 355 -1190 7 -16 34 -86 60 -155 26
-69 53 -138 60 -155 136 -323 166 -387 281 -620 119 -240 182 -356 322 -590
195 -327 470 -721 659 -946 12 -13 47 -55 79 -94 210 -253 578 -629 799 -816
22 -19 42 -37 45 -40 12 -15 253 -210 345 -279 55 -41 102 -77 105 -80 36 -40
552 -375 715 -465 28 -15 91 -50 140 -78 134 -75 402 -207 560 -277 77 -34
154 -68 170 -75 128 -59 579 -222 790 -286 225 -68 503 -145 564 -156 14 -2
62 -13 106 -23 139 -33 361 -79 453 -94 15 -3 70 -12 122 -21 52 -9 111 -19
130 -21 19 -2 46 -7 60 -9 14 -3 45 -7 70 -10 25 -3 56 -8 70 -10 14 -3 48 -7
75 -11 28 -3 59 -7 71 -9 11 -2 52 -6 90 -10 38 -4 76 -9 85 -10 9 -2 52 -6
95 -10 43 -4 89 -8 101 -10 12 -2 73 -7 135 -10 62 -4 124 -9 138 -11 184 -23
1051 -23 1313 1 23 2 83 6 132 10 50 3 101 8 115 10 14 2 57 6 95 10 94 8 155
15 185 20 14 3 52 7 85 10 33 4 67 8 75 11 8 2 35 6 60 9 192 24 605 104 825
161 77 19 147 37 155 39 58 13 272 73 305 85 11 4 88 28 170 55 212 67 583
204 730 270 17 7 93 41 170 75 128 57 526 252 550 270 6 4 49 28 97 53 48 26
140 79 205 118 65 39 134 80 153 91 37 21 451 295 485 322 11 8 79 59 150 112
171 128 340 265 500 405 154 135 471 449 575 569 41 47 80 92 87 100 10 11 12
-2 8 -75 -7 -127 -14 -225 -19 -271 -3 -21 -8 -66 -11 -99 -3 -33 -7 -76 -10
-95 -2 -19 -7 -57 -10 -85 -4 -27 -8 -61 -10 -75 -5 -32 -26 -186 -31 -225 -3
-25 -53 -301 -69 -385 -53 -276 -136 -636 -190 -825 -61 -215 -92 -317 -128
-430 -22 -71 -42 -132 -42 -135 -3 -16 -149 -429 -165 -465 -7 -17 -20 -49
-25 -65 -1 -3 -5 -14 -10 -25 -4 -11 -26 -65 -47 -120 -41 -104 -51 -127 -88
-210 -13 -27 -37 -84 -55 -125 -85 -197 -289 -606 -399 -798 -20 -35 -36 -65
-36 -67 0 -9 -241 -402 -317 -517 -48 -73 -92 -141 -98 -150 -31 -50 -325
-449 -380 -515 -8 -10 -36 -45 -62 -78 -27 -33 -58 -71 -70 -85 -11 -14 -40
-47 -63 -75 -62 -73 -157 -181 -220 -250 -87 -96 -477 -484 -569 -565 -46 -41
-89 -79 -95 -85 -71 -64 -296 -251 -371 -308 -14 -11 -86 -66 -115 -88 -71
-55 -169 -126 -290 -210 -116 -81 -191 -131 -400 -264 -43 -27 -224 -134 -340
-200 -148 -85 -598 -308 -790 -393 -496 -218 -1000 -394 -1525 -534 -104 -27
-197 -52 -205 -53 -8 -2 -64 -15 -125 -30 -100 -23 -299 -67 -357 -79 -70 -14
-350 -65 -388 -71 -25 -3 -52 -8 -60 -10 -8 -2 -40 -7 -70 -10 -30 -4 -57 -8
-60 -10 -3 -1 -32 -6 -65 -9 -33 -4 -67 -9 -75 -11 -8 -2 -42 -6 -75 -10 -55
-5 -82 -8 -185 -20 -19 -2 -66 -7 -105 -10 -38 -4 -81 -8 -95 -10 -23 -3 -113
-10 -275 -20 -371 -23 -1007 -24 -1285 -1 -25 2 -90 7 -145 11 -119 7 -194 13
-255 20 -63 6 -125 13 -195 20 -33 3 -73 8 -90 10 -34 5 -117 15 -155 20 -14
1 -43 5 -65 8 -22 4 -60 9 -85 12 -25 3 -67 10 -95 15 -27 5 -68 12 -90 15
-22 3 -56 8 -75 11 -19 4 -42 8 -50 9 -8 2 -53 10 -100 19 -47 8 -98 18 -115
21 -153 26 -522 109 -745 167 -85 22 -162 41 -170 43 -55 12 -503 146 -685
205 -348 114 -947 338 -1149 429 -23 11 -65 29 -92 39 -27 11 -74 31 -104 45
-30 14 -120 55 -200 91 -80 36 -167 76 -195 88 -81 37 -631 313 -744 373 -194
103 -427 233 -554 309 -43 25 -81 46 -83 46 -3 0 -17 8 -32 19 -15 10 -90 56
-167 101 -240 142 -728 456 -958 617 -29 20 -81 56 -117 81 -70 49 -177 125
-250 178 -102 75 -346 255 -360 267 -8 7 -44 34 -80 61 -65 49 -135 104 -272
214 -40 31 -79 62 -88 69 -8 6 -109 89 -225 184 -115 95 -232 191 -260 213
-27 23 -54 46 -60 52 -5 6 -37 33 -70 60 -33 27 -65 54 -71 59 -6 6 -33 29
-60 52 -27 22 -157 133 -289 245 -133 111 -263 221 -290 243 -27 22 -76 63
-109 91 -336 279 -722 563 -1021 750 -266 167 -669 368 -965 481 -209 80 -593
205 -703 228 -10 2 -27 7 -37 10 -10 3 -28 8 -39 10 -12 3 -29 7 -38 9 -118
31 -340 81 -393 90 -14 2 -52 9 -85 15 -101 18 -118 20 -180 26 -33 3 -67 7
-75 10 -8 2 -55 7 -105 11 -49 4 -106 8 -125 10 -47 5 -529 4 -610 0 -150 -9
-266 -20 -405 -37 -44 -6 -91 -12 -105 -14 -42 -5 -173 -24 -202 -30 -16 -3
-40 -7 -55 -10 -16 -3 -44 -8 -63 -11 -19 -3 -42 -7 -50 -9 -8 -3 -33 -7 -55
-11 -22 -3 -43 -8 -46 -10 -3 -2 -21 -6 -40 -9 -19 -3 -72 -15 -119 -26 -47
-12 -94 -23 -105 -25 -142 -27 -720 -210 -840 -266 l-40 -18 35 5 c156 24 829
25 982 0 13 -2 55 -6 93 -10 39 -3 81 -8 95 -10 14 -2 52 -7 85 -10 33 -3 67
-8 75 -10 8 -2 35 -6 60 -9 25 -4 59 -9 75 -11 17 -3 57 -10 90 -16 549 -95
976 -248 1394 -501 34 -21 64 -38 66 -38 5 0 190 -126 285 -193 157 -112 335
-258 579 -476 184 -165 612 -603 907 -930 27 -30 60 -66 72 -80 13 -14 49 -55
80 -90 32 -35 66 -73 77 -85 11 -13 52 -58 90 -101 39 -43 77 -86 85 -95 8 -8
42 -47 75 -85 33 -38 69 -79 80 -91 11 -11 49 -54 85 -95 72 -81 132 -148 254
-284 45 -49 99 -109 121 -134 22 -25 49 -55 60 -67 11 -11 58 -63 105 -114 47
-51 101 -110 120 -130 19 -21 87 -93 150 -161 213 -230 917 -928 1090 -1079
27 -23 172 -154 184 -165 19 -18 249 -218 306 -266 194 -164 269 -227 385
-320 703 -566 1336 -1004 2113 -1462 62 -37 115 -67 117 -67 2 0 26 -13 53
-29 59 -34 126 -72 212 -118 36 -20 92 -50 125 -68 116 -63 481 -247 620 -312
320 -149 345 -161 600 -267 116 -49 224 -94 240 -101 119 -52 503 -194 730
-272 265 -90 760 -243 905 -279 20 -5 362 -94 375 -98 21 -6 315 -75 343 -81
10 -2 85 -17 167 -35 83 -17 161 -34 175 -36 14 -3 70 -14 125 -24 55 -11 114
-22 130 -25 17 -3 41 -7 55 -10 14 -2 70 -11 124 -20 55 -9 102 -18 105 -19 3
-2 33 -7 66 -11 32 -3 62 -8 65 -10 3 -1 30 -6 60 -9 30 -4 80 -11 110 -16 30
-5 82 -12 115 -16 33 -3 67 -7 75 -9 47 -8 124 -18 235 -30 28 -3 66 -7 85
-10 36 -5 92 -10 190 -20 30 -3 75 -8 100 -10 43 -5 65 -7 230 -20 41 -3 98
-7 125 -10 28 -2 95 -7 150 -10 55 -3 132 -8 170 -10 245 -15 446 -19 975 -19
528 0 702 3 980 19 41 2 125 7 185 10 61 3 128 7 150 10 22 2 78 7 125 10 142
11 280 24 320 30 14 2 56 6 93 10 37 3 76 8 85 10 9 1 44 6 77 9 33 4 71 9 85
11 26 5 70 10 155 20 28 4 57 8 65 10 8 2 35 7 60 10 25 3 59 9 75 11 17 3 41
7 55 9 29 4 306 53 335 59 11 2 58 11 105 20 47 9 96 18 110 21 14 3 39 8 55
11 17 3 80 16 140 30 61 14 121 28 135 30 14 3 90 21 170 40 80 20 153 37 162
39 9 2 79 20 155 40 76 20 143 38 148 39 23 6 105 29 165 46 36 11 119 35 185
54 66 19 140 41 165 50 25 8 115 37 200 65 263 85 428 143 755 266 125 47 465
185 585 238 126 55 153 67 400 180 500 227 1189 602 1673 911 87 56 166 106
175 111 30 18 227 149 232 154 3 4 13 11 22 16 67 39 569 403 689 499 14 12
43 35 65 51 117 90 361 290 459 376 328 286 389 343 650 599 203 199 338 339
470 484 50 55 97 107 105 115 8 9 55 63 105 121 49 58 92 107 95 110 25 24
306 372 365 451 11 15 64 85 117 156 260 346 552 794 775 1188 157 275 348
649 458 895 26 58 55 123 65 145 60 134 194 469 254 635 15 41 32 84 36 95 32
72 234 719 246 785 3 14 9 36 14 50 23 62 165 668 185 790 3 19 10 55 15 80 5
25 12 57 14 73 3 15 10 53 15 85 13 74 19 108 26 157 3 22 10 65 15 95 5 30
12 75 15 100 3 25 7 56 10 69 2 13 7 49 10 80 4 31 8 67 11 81 4 28 30 270 39
365 3 33 8 80 10 105 3 25 7 86 11 135 3 50 7 110 9 135 13 177 19 438 19 835
0 511 -9 784 -39 1140 -3 28 -7 84 -10 125 -3 41 -7 89 -10 105 -2 17 -6 66
-10 110 -4 44 -8 87 -10 95 -2 8 -6 44 -10 80 -3 36 -8 76 -10 90 -2 14 -6 50
-10 80 -4 30 -8 66 -10 80 -2 14 -11 75 -20 135 -9 61 -18 121 -20 135 -2 14
-7 43 -10 65 -3 22 -10 63 -15 90 -11 60 -18 99 -26 144 -3 18 -8 43 -10 55
-3 11 -13 66 -24 121 -38 200 -127 579 -181 769 -11 39 -28 100 -38 136 -159
563 -402 1182 -668 1700 -100 194 -161 308 -173 325 -5 6 -39 64 -77 130 -39
66 -85 145 -104 175 -37 61 -291 441 -308 462 -6 7 -45 60 -88 118 -43 58 -83
112 -90 120 -6 8 -51 65 -99 125 -194 244 -414 485 -684 750 -135 133 -316
295 -465 420 -38 31 -82 68 -96 80 -14 12 -77 62 -140 109 -63 48 -121 93
-129 99 -58 46 -352 251 -500 347 -54 36 -241 150 -245 150 -2 0 -24 14 -48
30 -25 17 -48 30 -52 30 -4 0 -19 8 -33 18 -15 11 -58 36 -95 56 -37 20 -84
46 -105 58 -66 37 -455 233 -532 267 -41 19 -100 45 -130 59 -30 14 -57 26
-60 27 -3 0 -27 11 -54 23 -27 12 -51 22 -55 22 -3 0 -17 6 -31 13 -32 17
-302 123 -445 176 -460 169 -1032 326 -1510 416 -174 32 -183 34 -235 41 -25
3 -63 9 -85 14 -22 4 -47 8 -55 8 -8 0 -28 2 -45 5 -42 8 -108 15 -190 22
l-70 6 59 -41 c71 -50 177 -134 271 -214 266 -227 540 -513 768 -799 132 -166
319 -437 403 -585 12 -20 38 -66 59 -102 196 -338 406 -881 480 -1240 2 -8 10
-50 19 -92 9 -42 18 -94 21 -115 3 -21 8 -49 11 -63 8 -41 12 -72 18 -125 4
-27 8 -61 11 -75 20 -119 32 -553 20 -730 -21 -313 -66 -595 -141 -874 -114
-425 -299 -860 -517 -1216 -22 -36 -55 -91 -74 -122 -19 -31 -41 -62 -49 -69
-8 -6 -14 -15 -14 -20 0 -21 -242 -343 -359 -479 -31 -36 -69 -81 -86 -100
-111 -129 -495 -497 -605 -579 -19 -14 -37 -29 -40 -32 -11 -13 -200 -158
-280 -214 -47 -32 -87 -62 -90 -65 -16 -19 -425 -270 -440 -270 -4 0 -10 -3
-12 -7 -3 -9 -18 -17 -223 -122 -342 -175 -696 -316 -1067 -425 -146 -43 -335
-93 -388 -103 -14 -2 -65 -13 -113 -24 -48 -10 -105 -22 -125 -25 -20 -3 -44
-7 -52 -9 -21 -6 -55 -11 -220 -35 -205 -29 -197 -28 -285 -35 -44 -4 -89 -9
-100 -11 -96 -18 -828 -26 -1050 -11 -175 12 -237 16 -290 23 -27 3 -68 8 -90
10 -61 6 -223 27 -305 39 -86 12 -277 47 -440 80 -38 8 -146 34 -235 56 -44
11 -91 22 -104 25 -14 3 -28 7 -33 10 -4 3 -16 7 -27 9 -63 12 -371 111 -536
172 -273 101 -654 275 -885 404 -218 122 -469 282 -660 423 -97 72 -327 255
-365 291 -12 11 -49 44 -83 73 -143 123 -410 400 -571 592 -92 109 -91 108
-161 200 -70 92 -87 116 -169 236 -30 43 -57 81 -60 84 -3 3 -11 14 -18 25 -6
11 -47 79 -91 150 -162 265 -302 537 -407 790 -20 50 -41 99 -46 110 -92 212
-274 804 -313 1020 -3 17 -8 41 -11 55 -3 14 -8 39 -11 55 -3 17 -9 48 -14 70
-10 45 -46 256 -55 325 -3 25 -8 56 -10 70 -9 64 -23 182 -30 255 -2 17 -6 70
-10 120 -4 49 -8 105 -10 125 -21 241 -22 942 0 1175 1 17 6 82 10 145 4 63 8
121 10 130 2 9 6 50 9 91 4 41 9 90 11 109 3 19 7 53 9 75 3 22 13 92 22 155
9 63 18 131 20 150 3 19 11 71 19 115 8 44 17 96 20 115 11 68 15 86 41 210
14 69 30 145 35 170 12 60 107 433 124 490 8 25 35 115 60 200 250 829 669
1690 1164 2390 105 149 253 344 268 353 7 4 13 12 13 17 0 6 8 18 18 28 9 10
33 38 52 62 19 24 40 48 45 54 6 6 41 47 80 91 446 511 950 920 1410 1145 208
102 467 187 626 205 25 3 56 8 70 10 94 18 323 24 474 12 490 -40 970 -248
1284 -558 161 -160 263 -309 352 -514 91 -211 118 -558 64 -820 -103 -498
-498 -869 -1005 -943 -60 -9 -291 -8 -357 1 -293 40 -573 175 -765 369 l-87
87 31 -87 c56 -161 211 -449 283 -528 6 -6 28 -33 48 -61 99 -128 290 -291
445 -376 77 -43 229 -105 297 -122 17 -4 39 -9 50 -12 198 -48 430 -71 680
-67 99 2 196 5 215 8 19 2 64 8 100 11 36 4 72 8 80 10 8 1 35 6 60 10 313 51
617 149 905 291 187 93 208 105 380 219 322 213 582 454 870 806 73 90 335
468 335 484 0 3 17 33 38 67 21 35 41 70 45 78 4 8 17 31 28 50 23 37 163 315
197 390 92 204 194 465 266 682 41 122 132 427 141 471 2 10 7 27 10 37 3 10
8 28 10 39 3 12 7 29 9 39 8 27 58 245 62 266 2 11 17 88 33 170 31 153 55
294 66 376 3 25 8 56 10 70 5 28 8 51 29 225 16 130 20 170 41 430 14 186 19
337 19 670 1 431 -9 679 -39 985 -3 25 -7 70 -10 100 -3 30 -7 71 -10 90 -2
19 -7 58 -10 85 -3 28 -8 70 -11 95 -4 24 -7 54 -9 65 -4 32 -16 118 -21 145
-2 14 -7 44 -10 66 -2 23 -7 53 -9 65 -3 13 -10 51 -15 84 -5 33 -12 71 -15
85 -3 14 -10 52 -15 85 -15 85 -39 204 -50 245 -5 19 -11 49 -14 65 -2 17 -16
80 -31 140 -14 61 -30 128 -35 150 -5 22 -16 67 -25 100 -9 33 -18 67 -20 75
-66 271 -294 960 -399 1205 -8 17 -26 62 -41 100 -134 334 -365 809 -587 1205
-320 572 -776 1214 -1247 1755 -330 380 -753 799 -1161 1149 -139 119 -491
403 -553 446 -12 8 -74 53 -137 100 -63 47 -137 101 -165 120 -27 18 -52 36
-55 39 -12 14 -340 231 -349 231 -5 0 -11 3 -13 8 -3 8 -57 42 -228 144 -63
38 -122 73 -130 78 -8 5 -49 28 -90 51 -41 23 -91 51 -110 62 -441 249 -1072
525 -1620 707 -170 56 -561 172 -620 184 -14 2 -79 18 -145 35 -221 55 -463
107 -585 126 -19 3 -55 10 -80 15 -45 9 -59 12 -185 30 -38 6 -77 12 -85 15
-8 2 -40 6 -71 10 -31 3 -65 7 -75 9 -11 2 -48 7 -84 11 -36 4 -72 8 -80 10
-8 1 -46 6 -85 9 -38 4 -81 9 -95 11 -14 2 -60 7 -102 10 -42 4 -99 8 -125 10
-26 2 -91 7 -143 10 -52 4 -115 9 -140 11 -50 6 -1076 14 -1082 9z"/>
</g>
</svg>
